<?xml version="1.0" encoding="UTF-8" standalone="no"?>
<!-- Created with Inkscape (http://www.inkscape.org/) -->

<svg
   version="1.1"
   id="svg2"
   width="258.66666"
   height="258.66666"
   viewBox="0 0 258.66666 258.66666"
   sodipodi:docname="Nestle.eps"
   xmlns:inkscape="http://www.inkscape.org/namespaces/inkscape"
   xmlns:sodipodi="http://sodipodi.sourceforge.net/DTD/sodipodi-0.dtd"
   xmlns="http://www.w3.org/2000/svg"
   xmlns:svg="http://www.w3.org/2000/svg">
  <defs
     id="defs6" />
  <sodipodi:namedview
     id="namedview4"
     pagecolor="#ffffff"
     bordercolor="#000000"
     borderopacity="0.25"
     inkscape:showpageshadow="2"
     inkscape:pageopacity="0.0"
     inkscape:pagecheckerboard="0"
     inkscape:deskcolor="#d1d1d1" />
  <g
     id="g8"
     inkscape:groupmode="layer"
     inkscape:label="ink_ext_XXXXXX"
     transform="matrix(1.3333333,0,0,-1.3333333,0,258.66667)">
    <g
       id="g10"
       transform="scale(0.1)">
      <path
         d="M 2.59766,1933.23 H 1930.16 V 5.66797 H 2.59766 V 1933.23"
         style="fill:#ffffff;fill-opacity:1;fill-rule:evenodd;stroke:none"
         id="path12" />
      <path
         d="m 1108.97,1603.43 c 10.35,0 19.41,7.76 19.41,18.11 0,10.35 -9.06,18.12 -19.41,18.12 -10.35,0 -18.12,-7.77 -18.12,-18.12 0,-10.35 7.77,-18.11 18.12,-18.11"
         style="fill:#1f529a;fill-opacity:1;fill-rule:evenodd;stroke:none"
         id="path14" />
      <path
         d="m 859.238,1635.78 c 9.059,0 15.532,7.76 15.532,15.52 0,9.06 -6.473,15.53 -15.532,15.53 -9.058,0 -15.527,-6.47 -15.527,-15.53 0,-7.76 6.469,-15.52 15.527,-15.52"
         style="fill:#1f529a;fill-opacity:1;fill-rule:evenodd;stroke:none"
         id="path16" />
      <path
         d="m 671.617,1252.77 -7.765,7.76 c 22,20.71 43.996,51.76 47.878,69.88 2.586,18.11 28.465,14.23 23.29,-3.88 -6.473,-24.59 -34.938,-53.06 -63.403,-73.76"
         style="fill:#1f529a;fill-opacity:1;fill-rule:evenodd;stroke:none"
         id="path18" />
      <path
         d="m 512.465,1629.3 c -38.82,-16.82 -43.996,-56.93 -16.82,-81.51 32.343,-28.47 87.984,-3.88 82.808,41.41 43.996,-2.59 72.461,43.99 65.992,75.04 19.407,16.82 20.703,53.05 -2.59,67.29 -25.875,15.52 -49.164,10.35 -64.695,-19.41 -40.113,2.59 -78.933,-28.47 -64.695,-82.82 l -18.117,7.77 c -24.586,53.05 18.117,106.1 71.168,93.16 11.644,25.88 50.464,53.06 94.457,27.17 33.64,-20.7 41.406,-75.04 5.175,-100.92 16.821,-49.17 -18.117,-90.58 -69.875,-85.4 -6.468,-64.7 -65.988,-72.46 -106.097,-42.7 -22,18.12 -31.059,41.41 -34.942,59.52 -5.171,19.41 -5.171,36.23 -23.285,55.64 -14.238,14.23 -40.113,14.23 -40.113,14.23 0,46.59 -42.703,89.28 -97.047,68.58 -19.41,16.82 -43.996,18.12 -60.816,-2.58 -9.055,-11.65 -15.528,-42.71 15.527,-56.94 -1.293,-42.7 31.055,-69.87 78.934,-65.99 1.289,-22 25.875,-44 49.168,-46.58 l -1.297,-11.65 c -23.289,2.59 -36.227,-5.17 -51.758,-24.58 -55.637,2.58 -94.453,-23.29 -93.16,-63.4 -38.821,-6.47 -46.582,-47.88 -24.586,-69.88 21.996,-21.99 54.344,-12.94 65.988,12.94 40.113,-7.76 75.051,20.7 76.344,53.05 36.23,0 53.055,15.53 59.523,49.17 l 12.938,-1.29 c 3.879,-36.23 -12.938,-71.17 -56.934,-67.29 -1.293,-43.99 -42.699,-67.28 -82.808,-53.04 -18.118,-34.95 -60.821,-47.88 -95.754,-14.24 -34.938,32.35 -21.996,87.99 23.289,102.22 0,42.7 32.351,82.81 93.164,67.28 0,0 7.765,19.41 27.172,20.71 -12.938,5.17 -21.996,11.64 -24.582,25.88 -46.582,-10.35 -85.399,32.34 -75.047,75.04 -41.41,22 -42.703,63.41 -22,87.99 22,25.88 58.226,31.06 89.281,3.88 55.641,29.77 116.457,-7.76 112.574,-69.87 38.817,2.59 62.11,-29.76 56.934,-64.7 6.469,15.54 14.23,22 28.465,24.59 l 18.117,-7.77"
         style="fill:#1f529a;fill-opacity:1;fill-rule:evenodd;stroke:none"
         id="path20" />
      <path
         d="m 606.922,1704.36 9.058,-6.47 c -18.117,-38.82 -49.171,-77.64 -76.343,-100.93 l -10.352,9.06 c 19.41,31.05 59.52,82.81 77.637,98.34"
         style="fill:#1f529a;fill-opacity:1;fill-rule:evenodd;stroke:none"
         id="path22" />
      <path
         d="m 340.371,1497.32 5.176,-10.35 c -22,-21.99 -63.402,-53.05 -86.695,-64.69 l -7.762,10.35 c 20.699,23.29 62.105,53.05 89.281,64.69"
         style="fill:#1f529a;fill-opacity:1;fill-rule:evenodd;stroke:none"
         id="path24" />
      <path
         d="m 393.422,1608.6 -10.352,-12.94 c -29.761,19.41 -87.988,71.17 -100.925,90.58 l 9.054,9.06 c 28.469,-14.24 82.813,-63.41 102.223,-86.7"
         style="fill:#1f529a;fill-opacity:1;fill-rule:evenodd;stroke:none"
         id="path26" />
      <path
         d="m 339.078,1114.32 c 3.879,-16.82 0,-36.23 15.527,-54.35 5.172,-6.47 34.934,-45.28 56.93,-64.693 -29.762,-11.644 -87.988,-36.23 -129.39,-41.406 -9.059,-1.293 -18.118,-6.469 -25.883,-11.644 -5.172,-9.059 -10.348,-24.586 -12.938,-42.704 -1.293,-12.937 -1.293,-27.168 -1.293,-41.402 0,-12.941 6.469,-54.348 20.703,-81.519 14.231,-27.176 28.465,-40.114 45.286,-47.875 3.882,1.293 11.648,2.586 23.293,2.586 31.054,1.296 55.636,-16.821 67.285,-31.055 3.879,-6.469 12.937,-7.762 23.289,-7.762 25.879,0 54.343,9.055 80.226,19.41 6.469,3.879 21.996,15.524 37.524,27.172 16.82,12.938 104.808,87.988 143.625,106.102 20.703,-10.352 54.347,-24.582 89.281,-24.582 1.293,0 7.762,-1.297 15.527,1.293 10.352,2.586 24.59,6.468 42.703,10.351 31.051,6.469 67.282,11.645 78.93,11.645 28.465,-1.293 112.567,-2.59 133.277,-2.59 20.7,0 50.46,1.297 62.11,2.59 18.11,6.468 58.23,16.82 95.75,33.64 37.52,16.825 116.45,72.461 129.39,85.403 6.47,5.175 12.94,11.644 16.82,16.816 1.3,2.594 2.59,3.887 2.59,5.18 0,1.293 -1.29,55.644 -1.29,55.644 0,0 19.4,20.7 27.17,28.46 0,0 0,1.29 0,2.59 -3.88,10.35 -6.47,43.99 -5.18,77.63 l -18.11,9.06 c -1.3,-41.4 -16.82,-77.63 -31.06,-100.92 -28.46,-3.89 -84.1,-20.71 -103.51,-44 l 11.64,-2.59 c 18.12,10.36 37.53,16.83 60.82,16.83 19.41,0 28.47,-5.18 28.47,-10.36 0,-3.88 -3.89,-12.93 -5.18,-16.82 -1.29,-2.583 -2.59,-7.759 -6.47,-10.348 -27.17,-29.762 -56.93,-54.348 -94.46,-75.051 -24.58,-14.231 -49.16,-23.289 -85.39,-34.934 -11.65,-2.59 -27.18,-6.469 -36.24,-10.355 -14.23,0 -86.69,2.593 -129.389,2.593 -42.699,0 -130.688,-6.468 -157.863,-12.941 -12.938,-3.883 -16.821,-9.059 -31.055,-9.059 -27.172,0 -63.398,14.235 -85.398,24.586 -3.883,0 -11.645,-3.882 -19.407,-7.761 -15.531,-7.766 -50.465,-56.938 -71.168,-41.41 -10.351,-21.997 -55.636,-41.403 -69.871,-63.399 1.289,10.348 19.406,85.395 20.703,100.922 0,2.594 1.293,5.176 -1.297,7.766 -15.527,27.171 -62.109,43.992 -87.988,49.168 -6.469,1.293 -10.351,2.589 -15.523,3.886 l -41.406,11.641 -37.528,-11.641 43.996,-7.765 -55.64,-37.524 c 10.351,3.879 69.871,20.699 73.754,21.996 5.179,1.293 11.648,2.586 18.117,0 9.058,-2.59 31.054,-7.765 45.289,-12.937 7.762,-2.59 20.699,-16.824 24.582,-24.59 1.293,-3.879 1.293,-10.352 2.586,-25.875 0,-9.059 -1.293,-23.289 -3.879,-33.645 -6.473,-27.171 -19.41,-47.875 -23.289,-55.636 -5.18,-10.356 -11.649,-14.235 -19.414,-16.824 -11.645,-6.469 -27.168,-9.055 -42.699,-10.352 -11.645,0 -19.407,1.297 -24.586,7.766 -14.235,20.699 -51.754,40.113 -89.282,32.347 -23.289,14.235 -46.578,59.524 -46.578,95.75 0,22 10.348,56.934 16.817,73.758 37.527,5.172 113.871,33.641 150.097,50.461 7.766,0 29.762,7.766 50.465,7.766 49.172,0 98.34,-42.7 128.098,-72.461 5.179,7.765 14.234,20.703 40.113,20.703 34.938,0 55.641,-32.352 64.699,-64.696 l 18.114,12.938 c -2.586,18.113 -12.942,38.82 -27.172,54.344 -11.645,11.644 -34.934,21.996 -53.051,21.996 -11.645,0 -21.996,-2.586 -29.762,-2.586 -24.586,0 -34.937,11.644 -54.344,24.586 -19.41,12.937 -56.933,33.637 -84.105,33.637 -16.824,0 -24.586,-6.47 -38.82,-6.47 -20.703,0 -28.465,7.77 -37.524,20.7 -5.176,5.18 -25.879,23.3 -31.051,31.06 -3.886,5.18 -9.062,22 -11.648,31.05 l -28.465,20.71"
         style="fill:#1f529a;fill-opacity:1;fill-rule:evenodd;stroke:none"
         id="path28" />
      <path
         d="m 367.543,1093.61 c 6.469,-6.47 11.648,-12.93 19.406,-19.4 7.766,-5.18 16.824,-10.35 24.586,-15.53 12.938,-6.47 27.172,-14.23 40.113,-19.41 12.942,-2.59 28.465,-3.88 42.7,-3.88 20.703,0 45.289,3.88 65.988,-6.47 14.238,-5.18 14.238,-20.71 25.883,-24.58 16.82,-6.473 63.402,-7.77 89.281,-7.77 51.758,0 107.398,6.47 141.039,14.23 l -15.527,18.12 c -23.289,-3.88 -90.578,-11.65 -121.629,-11.65 -42.699,0 -84.11,7.77 -84.11,24.59 0,12.94 12.942,31.05 38.821,31.05 27.172,0 68.578,-16.82 76.34,-19.41 7.765,-1.29 10.355,-1.29 15.531,1.3 l 15.527,7.76 c -20.703,10.35 -94.461,34.94 -120.336,34.94 -11.648,0 -19.414,-1.29 -27.176,-11.64 -9.054,-12.95 -36.23,-24.59 -77.636,-24.59 -23.289,0 -56.93,5.18 -63.399,7.76 -12.945,5.18 -37.527,19.41 -53.054,31.06 -20.7,14.23 -38.817,31.05 -50.461,50.46 -3.883,5.18 -6.473,11.65 -6.473,18.11 0,5.18 2.59,9.06 2.59,12.94 3.883,-5.17 7.762,-9.05 12.937,-12.94 21.996,-21.99 54.348,-37.52 87.985,-43.99 10.355,-2.59 18.121,-3.88 28.472,-3.88 14.235,0 27.172,7.76 36.231,15.53 l -14.234,15.52 c -3.883,-1.29 -12.942,-1.29 -18.118,-1.29 -49.168,0 -111.277,31.05 -125.511,68.58 -1.293,3.88 -3.879,5.17 -1.293,9.06 1.293,3.88 2.589,10.35 3.882,16.82 2.586,-2.59 9.055,-7.77 15.528,-12.94 18.113,-11.65 53.047,-27.18 60.812,-32.35 16.825,5.17 29.762,11.64 40.114,16.82 10.355,5.17 24.586,10.35 40.113,10.35 36.23,0 77.633,-20.7 116.453,-40.11 l 25.879,10.35 c -34.938,24.58 -108.692,58.23 -150.094,58.23 -24.59,0 -47.879,-18.12 -64.703,-18.12 -19.406,0 -76.34,28.47 -76.34,51.76 0,18.11 36.231,28.47 97.047,34.94 -10.352,-14.24 -20.707,-31.06 -29.758,-46.58 l 15.52,-9.06 c 93.168,135.86 191.508,223.85 273.027,278.2 29.758,19.4 36.227,31.05 46.578,51.75 25.879,53.05 50.465,91.87 91.871,91.87 19.407,0 34.938,-10.35 46.582,-23.29 l 29.758,-9.06 -31.051,-20.7 31.051,-12.94 c -40.109,-11.65 -95.75,-51.76 -119.039,-109.99 -42.703,-1.29 -63.406,-37.52 -77.637,-65.98 -10.351,-20.71 -24.586,-28.47 -47.875,-42.71 l -177.269,-124.21 24.582,-3.88 164.332,109.98 c 32.348,22 47.875,38.82 55.637,53.05 14.238,31.06 31.054,54.35 63.402,54.35 15.531,0 32.352,-7.77 46.586,-20.7 l 28.465,-9.06 -31.055,-19.41 25.879,-15.53 C 815.246,1406.75 768.664,1352.4 741.492,1248.89 l 19.41,-3.88 c 10.352,33.64 20.7,64.69 37.52,93.16 43.996,0 87.988,1.29 131.98,1.29 115.168,0 210.918,-5.17 262.668,-19.41 l -18.11,31.06 c -55.64,10.35 -135.87,14.23 -244.558,14.23 -37.519,0 -73.75,-1.29 -111.277,-1.29 24.586,24.58 58.227,46.58 111.277,62.11 l -37.519,20.7 41.402,23.29 -56.933,20.71 c -9.055,9.05 -21.997,18.11 -37.524,21.99 18.117,55.64 80.227,87.99 139.746,109.99 l -41.406,16.82 41.406,23.29 -64.695,20.7 c -16.824,19.41 -32.352,28.47 -58.227,28.47 -59.523,0 -84.109,-51.76 -108.691,-97.05 -11.648,-24.58 -19.414,-34.93 -41.406,-49.17 -45.289,-29.76 -104.813,-76.34 -160.45,-134.57 -28.464,20.71 -89.281,82.81 -104.808,116.46 -6.469,-7.76 -12.942,-25.88 -12.942,-25.88 6.473,-6.47 76.348,-76.34 102.223,-107.39 -1.293,-1.3 -3.879,-3.89 -5.176,-6.48 -28.464,-5.17 -100.929,-12.94 -125.511,-9.06 l -12.942,-24.58 c 18.117,1.29 89.281,10.35 120.34,11.65 -9.062,-10.36 -18.113,-22 -27.176,-33.65 -93.164,-10.35 -153.976,-29.76 -153.976,-63.4 0,-5.18 1.297,-11.64 1.297,-18.11 0,-14.24 -5.18,-19.41 -15.532,-25.88 -6.468,-3.88 -6.468,-7.77 -3.882,-11.65 2.589,-3.88 16.824,-24.59 16.824,-28.47 0,-7.76 -6.473,-14.23 -11.649,-20.69 -5.175,-5.18 -5.175,-6.48 -1.293,-12.95 l 27.176,-56.93 28.465,-20.71"
         style="fill:#1f529a;fill-opacity:1;fill-rule:evenodd;stroke:none"
         id="path30" />
      <path
         d="m 1512.68,1410.63 c -5.18,-5.18 -10.36,-12.94 -15.53,-19.41 l -14.24,20.71 c 49.18,65.99 181.16,97.04 258.79,103.51 v 34.94 c -10.35,-2.59 -20.7,-6.47 -31.05,-9.06 -12.94,-2.59 -25.88,-6.47 -36.23,-5.18 -11.65,0 -20.71,3.89 -24.59,10.36 -10.35,14.23 0,36.22 33.65,56.93 l -27.18,23.29 c -20.7,-27.17 -40.11,-56.93 -60.81,-73.76 -19.41,-16.82 -38.82,-24.58 -54.35,-12.93 -9.05,6.47 -11.64,9.05 -12.94,25.87 1.3,24.59 15.53,62.12 28.47,86.7 l -31.05,3.88 c -5.18,-37.53 -20.71,-68.58 -37.53,-94.46 -19.41,-32.34 -45.29,-55.64 -72.46,-73.75 l -18.11,16.82 c 21.99,12.94 49.17,33.64 67.28,62.11 22,33.64 40.11,75.05 40.11,111.28 l 90.58,-7.77 c -12.94,-16.82 -33.64,-54.34 -41.41,-80.22 -3.88,-14.23 -3.88,-25.88 1.3,-29.76 9.05,-6.47 25.87,5.17 42.69,21.99 23.3,25.88 46.59,63.41 55.64,76.35 l 67.29,-54.35 c -29.76,-15.52 -58.23,-33.64 -53.05,-43.99 5.18,-9.06 24.58,-6.47 45.28,0 16.83,5.17 34.94,12.94 49.18,21.99 v -89.28 c -32.35,0 -86.7,-6.47 -138.46,-21.99 12.95,-16.82 47.88,-23.29 69.88,-27.18 l -10.35,-72.46 c -56.94,24.59 -100.93,37.53 -170.8,38.82 l 23.28,20.7 c 50.47,-1.29 102.23,-16.81 130.7,-31.05 l 3.88,27.17 c -25.88,3.88 -58.23,18.12 -72.47,34.94 -21.99,-7.76 -43.99,-18.12 -62.11,-31.06 l -23.28,-20.7"
         style="fill:#1f529a;fill-opacity:1;fill-rule:evenodd;stroke:none"
         id="path32" />
      <path
         d="m 1240.95,1180.31 20.7,46.58 c -21.99,25.88 -46.58,58.23 -68.58,93.16 l -18.11,31.06 c -42.7,80.22 -27.17,119.04 -49.17,155.27 -19.41,28.47 -109.99,10.35 -124.22,7.76 l 25.88,42.7 -51.759,-3.88 43.999,51.76 c 5.17,7.76 6.47,12.94 11.64,31.06 7.76,28.46 31.06,75.04 100.93,75.04 76.34,0 100.93,-62.11 133.28,-89.28 38.81,-31.05 87.98,-73.75 131.98,-116.45 l 18.11,-16.82 c 23.29,-23.29 45.29,-47.88 67.28,-76.34 l 14.24,-20.71 c 93.16,-134.57 207.03,-392.06 258.79,-509.81 3.88,-11.648 7.76,-23.289 11.64,-32.347 -34.93,19.406 -72.46,42.699 -112.57,69.875 l -22,15.523 c -14.23,10.352 -28.47,20.703 -42.7,31.055 l -23.29,19.41 c -14.23,10.351 -28.47,21.994 -41.4,33.644 l 46.58,-267.847 c 2.59,-16.821 16.82,-14.235 27.17,0 10.35,14.23 15.53,18.117 10.35,36.23 l -42.7,197.973 23.29,-19.41 41.41,-166.918 c 3.88,-15.528 10.35,-20.7 28.47,-20.7 18.11,-1.296 20.7,5.172 18.11,16.817 l -45.29,139.746 22,-15.523 42.7,-125.516 c 11.65,-32.348 0,-36.231 -19.41,-36.231 -18.11,0 -36.23,5.18 -46.58,-1.293 -10.35,-7.761 -23.29,-25.878 -40.11,-41.406 -12.94,-14.234 -33.65,-11.644 -37.53,15.528 l -51.76,309.25 c -32.34,29.76 -64.69,60.82 -93.16,93.17 -11.64,5.17 -25.87,11.64 -38.82,16.81 l -18.11,9.06 c -7.77,3.89 -12.94,5.18 -14.23,6.47 -14.24,-16.82 -28.47,-36.23 -44,-49.17 -7.76,-7.76 -14.23,-11.64 -25.87,-11.64 -3.89,0 -9.06,0 -12.95,2.58 -5.17,2.59 -9.05,7.77 -14.23,15.53 -3.88,5.18 -9.06,12.94 -14.23,20.71 -10.35,16.82 -20.71,38.81 -31.06,55.64 -10.35,19.41 -20.7,33.64 -22,36.23 -1.29,3.88 -6.46,7.76 -6.46,7.76 -6.47,-7.76 -10.36,-24.58 -10.36,-34.94 l -18.11,6.47 c 1.29,12.94 6.47,29.76 10.35,37.53 0,6.47 -7.76,15.52 -14.23,15.52 -9.06,0 -18.12,-9.05 -22,-27.17 l -19.41,-9.06 c 1.3,29.76 11.65,62.11 41.41,62.11 23.29,0 38.81,-18.11 49.17,-34.93 11.64,-16.82 49.17,-67.29 56.93,-77.64 l 14.23,-18.11 c 2.59,-11.65 7.77,-18.12 10.36,-22 5.17,-7.76 10.34,-7.76 18.11,0 3.88,2.59 14.23,11.64 25.88,23.29 9.06,9.06 18.11,21.99 22,27.17 10.35,-3.88 31.05,-14.23 46.58,-20.7 -68.58,85.4 -135.87,188.91 -164.33,258.79 -11.65,29.76 11.64,38.81 21.99,10.35 31.06,-77.64 120.34,-216.09 186.33,-288.55 75.05,-82.81 213.5,-204.441 304.08,-252.32 -12.95,25.883 -29.77,62.11 -50.47,104.81 -109.98,62.11 -219.97,175.98 -271.73,274.32 l 22,-2.59 c 47.88,-85.4 163.04,-199.27 231.62,-231.62 -62.11,131.98 -143.63,298.9 -205.74,370.07 -78.93,89.28 -164.33,159.15 -205.73,194.09 -40.12,36.23 -56.94,80.22 -113.87,80.22 -47.88,0 -73.76,-34.93 -82.81,-68.58 -2.59,-7.76 -3.88,-11.64 -7.77,-18.11 l -23.29,-27.17 49.17,5.17 -28.47,-38.81 c 0,0 76.35,16.81 103.52,-19.42 28.47,-38.81 10.35,-82.81 58.23,-169.5 20.7,-37.53 71.16,-104.81 87.99,-120.34 l -33.65,-68.57 -14.23,18.11"
         style="fill:#1f529a;fill-opacity:1;fill-rule:evenodd;stroke:none"
         id="path34" />
      <path
         d="m 487.879,1168.66 -11.649,7.77 c 6.477,5.17 19.415,14.23 32.352,19.41 6.469,2.59 14.234,3.88 19.406,3.88 12.946,0 24.59,-5.18 34.942,-11.65 16.816,-9.05 36.226,-19.41 51.758,-19.41 5.171,0 10.347,1.3 16.816,1.3 15.527,0 29.762,-6.47 37.527,-6.47 5.176,0 7.762,3.88 11.645,9.06 7.762,11.65 19.406,20.7 33.64,25.88 14.231,6.46 33.645,9.05 53.051,9.05 16.824,0 31.055,-2.59 38.821,-3.88 0,0 -11.649,-14.23 -14.235,-18.12 -16.82,0 -46.582,1.3 -65.988,-6.46 -12.942,-5.18 -16.82,-12.94 -16.82,-22 0,-14.23 16.82,-20.7 33.64,-25.88 11.645,-2.59 23.289,-3.88 32.348,-3.88 12.937,0 36.23,5.18 59.523,10.35 28.465,5.18 54.344,12.94 62.11,15.53 l 10.347,-18.12 c -31.054,-10.35 -63.402,-20.7 -93.164,-25.88 -16.82,-3.88 -32.347,-6.46 -46.582,-6.46 -24.582,0 -50.461,10.34 -71.164,20.7 -18.117,7.76 -33.64,16.82 -49.172,16.82 -15.527,0 -31.051,-5.18 -45.289,-14.24 -7.762,-3.88 -29.758,-19.41 -49.164,-27.17 -15.531,-5.18 -27.176,-9.06 -42.703,-9.06 -12.937,0 -21.996,2.59 -28.465,7.77 l 23.293,14.23 c 3.879,-2.59 9.055,-3.88 11.641,-3.88 3.883,0 7.765,1.29 16.824,5.17 5.172,1.3 12.937,6.48 18.113,9.06 9.055,6.47 11.649,10.36 15.528,12.94 7.765,5.18 10.351,12.94 1.293,20.71 -5.172,3.88 -9.055,7.76 -14.231,11.64 -9.058,5.18 -14.234,9.06 -29.762,9.06 -16.82,0 -29.761,-3.88 -36.23,-7.77"
         style="fill:#1f529a;fill-opacity:1;fill-rule:evenodd;stroke:none"
         id="path36" />
      <path
         d="m 816.539,1159.61 c 0,0 -14.234,3.88 -18.117,3.88 9.058,12.94 21.996,23.29 31.058,29.76 19.407,12.94 38.817,20.7 69.872,22 7.761,1.29 24.582,2.59 33.644,2.59 9.055,-1.3 23.289,-1.3 36.227,-3.89 9.058,-1.29 18.113,-3.88 25.879,-5.18 3.882,-1.29 19.408,-1.29 24.588,0 21.99,3.89 47.87,11.65 60.81,19.42 l 5.18,-20.71 c -28.47,-15.52 -60.82,-29.76 -91.871,-29.76 -14.235,0 -31.055,1.3 -46.582,2.59 -25.879,2.59 -49.172,6.47 -56.934,6.47 -21.996,0 -53.051,-10.35 -73.754,-27.17"
         style="fill:#1f529a;fill-opacity:1;fill-rule:evenodd;stroke:none"
         id="path38" />
      <path
         d="m 795.836,1044.45 -27.172,12.94 c 37.524,18.11 94.457,37.52 119.043,41.4 23.289,3.89 50.461,6.47 65.988,11.65 7.766,-18.12 21.996,-36.23 41.407,-36.23 7.768,0 19.408,5.17 32.348,10.35 14.23,6.47 27.18,12.94 34.94,15.53 7.76,3.88 32.35,14.23 54.34,24.58 7.77,3.88 29.76,14.23 31.06,14.23 l 14.23,-7.76 c -3.88,-18.12 -11.65,-41.41 -19.41,-58.23 -2.59,-6.46 -6.47,-11.64 -9.06,-15.52 -6.46,-6.47 -16.82,-16.82 -29.76,-25.89 -14.23,-10.34 -32.34,-20.7 -50.46,-31.05 -14.24,-7.759 -28.47,-16.817 -43.99,-23.286 l -6.47,14.231 c 21.99,12.945 45.28,28.465 65.99,43.995 9.05,6.47 18.11,14.23 24.58,20.7 5.18,3.88 7.77,7.77 10.35,11.65 6.47,7.76 16.82,25.87 19.41,33.64 -9.06,-3.88 -40.11,-19.41 -54.34,-25.88 -16.82,-9.05 -42.7,-22 -58.23,-29.76 -10.35,-5.17 -20.704,-7.76 -28.47,-7.76 -16.82,0 -24.582,11.64 -28.465,19.41 -10.351,18.11 -20.699,19.4 -50.461,19.4 -33.644,1.3 -80.222,-12.93 -107.398,-32.34"
         style="fill:#1f529a;fill-opacity:1;fill-rule:evenodd;stroke:none"
         id="path40" />
      <path
         d="m 954.992,1129.85 c 0,0 -3.883,15.52 -6.472,21.99 0,0 5.175,1.3 11.644,1.3 9.059,0 34.938,-2.59 45.286,-2.59 38.82,0 53.05,11.65 64.7,22 10.35,9.05 20.7,16.82 46.58,16.82 23.29,0 50.47,-9.06 58.23,-12.94 l -1.3,-22 c -11.64,6.47 -27.17,10.35 -41.4,10.35 -9.06,0 -18.12,0 -24.59,-3.88 -6.46,-3.88 -11.64,-9.06 -18.11,-14.23 -6.47,-5.18 -15.53,-10.35 -28.47,-15.53 -11.64,-5.18 -27.17,-7.76 -50.46,-7.76 -29.763,0 -46.583,5.17 -55.638,6.47"
         style="fill:#1f529a;fill-opacity:1;fill-rule:evenodd;stroke:none"
         id="path42" />
      <path
         d="m 706.555,968.105 18.117,7.766 c 15.523,-6.473 40.109,-14.238 56.93,-14.238 10.351,0 18.117,3.883 24.586,6.472 5.175,2.586 65.988,32.345 95.75,42.695 9.058,3.89 19.41,5.18 23.292,5.18 7.766,0 7.766,-2.59 10.348,-6.47 5.18,-9.06 50.465,-72.459 54.348,-76.342 37.524,11.645 76.344,28.465 98.344,49.172 23.29,22 42.69,47.87 62.1,68.58 6.47,7.76 15.53,14.23 19.42,16.82 19.4,10.35 80.22,11.64 104.8,10.35 l -14.23,-20.7 c -45.29,0 -69.88,-5.18 -81.52,-12.94 -3.88,-3.88 -11.64,-11.65 -18.11,-20.71 -15.53,-19.4 -32.35,-46.576 -38.82,-51.756 12.94,-9.054 27.17,-16.82 50.46,-16.82 37.52,0 64.7,23.293 78.93,36.231 l 12.94,-6.469 c -9.06,-12.942 -20.7,-24.586 -33.64,-33.645 -15.53,-10.347 -34.94,-18.113 -45.29,-20.699 -21.99,3.879 -69.87,14.231 -81.52,15.527 -41.4,-16.824 -109.981,-43.996 -131.977,-50.464 -3.883,-1.293 -9.059,-2.59 -15.528,-2.59 -18.117,-1.293 -42.703,-1.293 -65.992,0 -15.523,0 -31.055,0 -38.816,1.297 l -20.704,20.699 c 18.114,-3.879 24.582,-3.879 41.403,-3.879 38.82,0 64.699,6.469 72.465,7.766 7.757,2.582 9.054,6.468 6.468,12.937 -3.882,9.059 -9.058,19.406 -18.113,29.758 -5.18,5.176 -15.531,14.238 -19.414,16.824 -5.176,3.883 -10.348,5.176 -25.875,0 -12.937,-3.883 -55.644,-27.176 -73.758,-37.523 -9.054,-3.883 -16.82,-6.473 -32.347,-2.59 -18.114,3.883 -59.524,19.406 -75.047,29.761"
         style="fill:#1f529a;fill-opacity:1;fill-rule:evenodd;stroke:none"
         id="path44" />
      <path
         d="m 824.301,1439.1 c 7.762,0 15.527,7.76 15.527,15.53 0,9.05 -7.765,15.52 -15.527,15.52 -9.055,0 -15.528,-6.47 -15.528,-15.52 0,-7.77 6.473,-15.53 15.528,-15.53"
         style="fill:#1f529a;fill-opacity:1;fill-rule:evenodd;stroke:none"
         id="path46" />
      <path
         d="m 1410.45,544.984 c 0,11.649 -10.34,22 -23.29,22 h -32.34 c -12.94,0 -23.29,-10.351 -23.29,-22 l 1.29,-346.773 c 0,-11.645 9.06,-21.996 22,-21.996 h 32.34 c 12.95,0 23.29,10.351 23.29,21.996 v 346.773"
         style="fill:#1f529a;fill-opacity:1;fill-rule:evenodd;stroke:none"
         id="path48" />
      <path
         d="m 1451.86,534.633 v -15.524 c 0,-7.765 5.18,-12.941 12.94,-12.941 h 227.73 c 10.36,0 19.42,9.059 19.42,19.41 v 27.172 c 0,10.352 -9.06,20.703 -19.42,19.41 0,0 -219.97,-21.996 -227.73,-23.289 -7.76,0 -12.94,-6.473 -12.94,-14.238"
         style="fill:#1f529a;fill-opacity:1;fill-rule:evenodd;stroke:none"
         id="path50" />
      <path
         d="m 1266.83,176.215 c -56.94,0 -91.87,42.699 -91.87,90.578 v 138.449 h -16.82 c -7.77,0 -15.53,7.762 -15.53,15.528 v 23.293 c 0,9.054 7.76,15.523 15.53,15.523 h 16.82 v 85.398 c 0,11.649 9.06,22 22,22 h 32.34 c 11.65,0 20.71,-10.351 20.71,-22 v -85.398 h 50.46 c 9.06,0 15.53,-6.469 15.53,-15.523 V 420.77 c 0,-7.766 -6.47,-15.528 -15.53,-15.528 h -50.46 V 277.141 c 0,-24.582 15.53,-42.7 42.7,-42.7 h 5.17 c 9.06,0 16.82,-6.468 16.82,-16.824 v -24.582 c 0,-9.058 -7.76,-16.82 -16.82,-16.82 h -31.05"
         style="fill:#1f529a;fill-opacity:1;fill-rule:evenodd;stroke:none"
         id="path52" />
      <path
         d="m 878.648,322.43 c 0,73.754 -43.992,147.508 -143.628,147.508 -91.868,0 -142.329,-72.461 -142.329,-147.508 0,-80.223 54.34,-151.391 143.622,-151.391 60.816,0 120.339,31.055 131.984,84.106 1.293,6.468 -3.883,16.82 -12.942,16.82 h -43.992 c -7.765,0 -14.234,-3.883 -18.113,-10.352 -12.945,-18.113 -31.059,-27.172 -56.937,-27.172 -38.817,0 -64.696,29.762 -67.282,63.403 h 185.032 c 16.82,0 24.585,9.058 24.585,24.586 z M 670.32,353.484 c 2.594,32.348 31.059,56.934 64.7,56.934 34.937,0 63.402,-24.586 67.285,-56.934 H 670.32"
         style="fill:#1f529a;fill-opacity:1;fill-rule:evenodd;stroke:none"
         id="path54" />
      <path
         d="m 1719.71,322.43 c 0,73.754 -44,147.508 -143.63,147.508 -91.87,0 -142.33,-72.461 -142.33,-147.508 0,-80.223 54.34,-151.391 143.63,-151.391 60.81,0 120.33,31.055 131.98,84.106 1.29,6.468 -3.89,16.82 -12.95,16.82 h -43.99 c -7.76,0 -14.23,-3.883 -18.12,-10.352 -12.93,-18.113 -31.05,-27.172 -58.22,-27.172 -37.53,0 -63.4,29.762 -65.99,63.403 h 185.03 c 16.83,0 24.59,9.058 24.59,24.586 z m -208.33,31.054 c 2.59,32.348 31.05,56.934 64.7,56.934 34.94,0 63.4,-24.586 65.99,-56.934 h -130.69"
         style="fill:#1f529a;fill-opacity:1;fill-rule:evenodd;stroke:none"
         id="path56" />
      <path
         d="M 1112.85,563.102 H 515.051 c -14.231,0 -24.586,-11.649 -24.586,-24.582 l 1.293,-235.5 c 0,0 -128.098,232.906 -134.567,244.554 -6.468,11.645 -20.707,21.996 -38.82,21.996 h -49.168 c -14.234,0 -24.582,-11.648 -24.582,-24.586 V 200.801 c 0,-14.235 10.348,-24.586 24.582,-24.586 h 31.055 c 14.23,0 24.586,10.351 24.586,24.586 l -1.297,240.672 c 0,0 129.398,-234.203 135.867,-243.262 6.469,-12.938 19.406,-21.996 37.524,-21.996 h 45.285 c 14.234,0 24.586,10.351 24.586,24.586 v 304.074 h 546.041 c 9.06,0 16.82,7.762 16.82,16.82 v 24.586 c 0,9.059 -7.76,16.821 -16.82,16.821"
         style="fill:#1f529a;fill-opacity:1;fill-rule:evenodd;stroke:none"
         id="path58" />
      <path
         d="m 1015.8,413.004 c 25.88,0 45.29,-9.059 53.06,-25.879 2.59,-7.766 9.05,-9.055 18.11,-9.055 h 36.23 c 5.18,0 12.94,5.176 12.94,12.938 0,41.406 -50.46,78.93 -120.34,78.93 -72.456,0 -120.331,-34.934 -120.331,-89.282 0,-42.699 33.64,-67.285 73.754,-78.929 19.41,-3.883 51.757,-11.645 67.287,-16.821 15.53,-3.883 31.05,-9.062 31.05,-23.293 0,-23.289 -23.29,-29.761 -50.46,-29.761 -24.588,0 -49.17,10.355 -55.639,28.468 -3.883,10.352 -11.648,11.645 -21.996,11.645 H 903.234 C 896.766,271.965 889,265.496 889,257.73 v -5.171 c 0,-40.114 54.344,-81.52 129.39,-81.52 51.76,0 125.51,21.996 125.51,91.867 0,41.41 -27.17,69.875 -72.45,81.52 -16.82,3.883 -58.23,15.527 -67.29,16.82 -16.824,5.176 -32.347,10.352 -32.347,23.293 0,21.996 19.41,28.465 43.987,28.465"
         style="fill:#1f529a;fill-opacity:1;fill-rule:evenodd;stroke:none"
         id="path60" />
    </g>
  </g>
</svg>
