<?xml version="1.0" encoding="utf-8"?>
<!-- Generator: Adobe Illustrator 19.0.0, SVG Export Plug-In . SVG Version: 6.00 Build 0)  -->
<svg version="1.1" id="layer" xmlns="http://www.w3.org/2000/svg" xmlns:xlink="http://www.w3.org/1999/xlink" x="0px" y="0px"
	 viewBox="-153 -46 652 652" style="enable-background:new -153 -46 652 652;" xml:space="preserve">
<style type="text/css">
	.st0{fill-rule:evenodd;clip-rule:evenodd;fill:#004198;}
	.st1{fill-rule:evenodd;clip-rule:evenodd;fill:#009A6B;}
</style>
<path class="st0" d="M96.6,311.9c-0.1,21.8,6.5,45.9,24.3,68.5c17.9-22.6,24.5-46.7,24.3-68.5c0.2-21.9-6.4-46-24.3-68.6
	C103.1,265.9,96.4,290.1,96.6,311.9"/>
<g>
	<path class="st0" d="M153.6,274.9c37.1,1.6,68.3-28.1,70-66.4c1.6-38.3-27.2-70.7-64.2-72.3C99,133.6,16.6,205.2,93.7,376
		C29.8,345.7-13.3,278.2-10.1,201.2C-6,99.5,77.2,20.7,175.7,24.9c98.3,4.3,174.8,90.2,170.6,191.9
		c-2.9,71.6-45.1,132.1-104.2,159.9"/>
</g>
<path class="st1" d="M40.1,478.8l-23,0c0.6-7.2,5.5-12.1,12.3-12.1C36,466.6,40.4,470.9,40.1,478.8 M63,483.6
	c0-18.4-10.1-32.7-33.1-32.7c-23.6,0-36.6,15.9-36.7,37.6c0,24.7,13.8,35.9,38.8,35.9c9.3,0,19.6-1.6,28.2-4.8l-2.1-16.2
	c-7.1,3-14.9,4.4-22.4,4.4c-12.6,0-18.7-5.4-18.8-14.7l45.3,0C62.7,489.7,63,486.6,63,483.6"/>
<polyline class="st1" points="72.6,522.9 72.7,419.8 96,419.8 96,522.9 "/>
<path class="st1" d="M121.3,445.4c-7.8,0-14.3-5.7-14.2-12.7c0-7.1,6.4-12.7,14.3-12.7c8,0,14.4,5.7,14.4,12.7
	C135.7,439.6,129.2,445.4,121.3,445.4 M109.6,522.9l0.1-70.2l23.3,0l-0.1,70.2L109.6,522.9z"/>
<path class="st1" d="M185.3,494.7c0,6.9-5.4,13.4-13.2,13.4c-4.9,0-7.7-2.5-7.7-6.1c0-5.1,4-9.4,20.9-9.4 M209.3,523
	c-0.5-5.5-0.6-11.6-0.6-16.7l0-30.3c0-16.1-7.4-25.2-33.5-25.2c-9.5,0-19.8,1.8-27.6,4.1l1.8,17.8c6.3-3.1,15.5-5.1,22.2-5.1
	c10.1,0,13.6,2.8,13.6,8.6v2.7c-24.3,0-42.9,8.4-43,26.2c0,11.3,7.6,19.2,22.3,19.3c10.6,0,19.6-4.8,23.3-12.2h0.2
	c-0.6,3.5-0.6,7.2-0.6,10.6L209.3,523z"/>
<path class="st1" d="M265.5,523.1l0-44.6c0-5.7-1.7-9-7.1-9c-8.3,0-15.2,9.3-15.2,19.6l0,34H220l0.1-70.2l21.7,0
	c0,2.5-0.2,7.6-0.9,11h0.1c4.8-7.2,13.2-12.6,25.3-12.6c17,0,22.5,10.1,22.5,22.2l0,49.6"/>
<path class="st1" d="M332.9,524.6c-23.1,0-34.9-11.8-34.9-34.4c0-21.2,12.3-38.9,40.2-38.8c4.9,0,10,0.7,14.7,1.9l-2.5,18.6
	c-3.8-1.1-7.8-2-11.9-2c-10.7,0-16.1,7.1-16.1,18.6c0,10.8,5.2,17.4,15.7,17.4c4.4,0,9.2-0.8,12.9-2.5l1.8,18.2
	C347.6,523.4,340.3,524.6,332.9,524.6"/>
<path class="st1" d="M404.2,479.1h-23c0.6-7.2,5.5-12.1,12.3-12.1C400.2,467,404.6,471.2,404.2,479.1 M427.2,483.9
	c0-18.4-10.1-32.6-33.1-32.7c-23.6,0-36.6,16-36.6,37.6c0,24.7,13.8,35.9,38.7,35.9c9.4,0,19.6-1.6,28.2-4.8l-2.1-16.2
	c-7,3-14.9,4.3-22.4,4.4c-12.6,0-18.7-5.4-18.8-14.7l45.4,0C426.9,490,427.2,486.9,427.2,483.9"/>
<path class="st1" d="M-28.6,482.8c9.5-5.2,15.4-15.4,15.5-25.8c0-20.2-17.7-30.2-42.1-30.3l-35.8,0v96.1l23.9,0l0.1-82.2l13,0
	c12.2,0.7,15.9,9.6,15.9,17c0,11.1-8.8,20.3-19.1,21.6l24.5,43.6h26.6"/>
</svg>
